<svg xmlns="http://www.w3.org/2000/svg" viewBox="0 0 24 24" width="24" height="24">
  <path fill="#0b2a3a" d="M12 .297a12 12 0 00-3.797 23.4c.6.111.82-.26.82-.577 0-.285-.01-1.04-.015-2.04-3.338.725-4.042-1.61-4.042-1.61-.546-1.387-1.333-1.757-1.333-1.757-1.09-.745.083-.73.083-.73 1.205.085 1.84 1.238 1.84 1.238 1.07 1.834 2.809 1.304 3.495.997.108-.776.418-1.304.76-1.604-2.665-.304-5.466-1.332-5.466-5.93 0-1.31.468-2.381 1.235-3.222-.124-.303-.535-1.524.117-3.176 0 0 1.008-.322 3.3 1.23a11.5 11.5 0 016 0c2.29-1.552 3.297-1.23 3.297-1.23.653 1.653.242 2.873.118 3.176.77.841 1.233 1.912 1.233 3.222 0 4.61-2.803 5.624-5.475 5.92.43.37.814 1.102.814 2.222 0 1.605-.015 2.898-.015 3.293 0 .32.216.694.825.576A12.012 12.012 0 0012 .297"></path>
</svg>